<svg xmlns="http://www.w3.org/2000/svg" width="512" height="512" viewBox="0 0 512 512">
  <g fill="none" fill-rule="evenodd">
    <circle cx="256" cy="256" r="256" fill="#4371A9"/>
    <path fill="#FFFFFF" fill-rule="nonzero" d="M289.704256,1.29572869 C288.491231,0.0791822359 286.687608,-0.32043913 285.064348,0.266615266 L41.3949109,89.0532879 C39.6478724,89.6898529 38.4878954,91.3484584 38.4878954,93.2086428 C38.4878954,95.0652907 39.6514089,96.7274327 41.3984474,97.3604612 L153.099281,137.895506 L193.638356,249.598519 C194.271392,251.345537 195.930017,252.509036 197.790224,252.512572 L197.793761,252.512572 C199.650431,252.512572 201.309057,251.349073 201.949166,249.605592 L290.733381,5.9355803 C291.320443,4.31941248 290.920817,2.50873868 289.704256,1.29572869 Z M197.800834,235.155566 L160.706326,132.937372 C160.260725,131.70668 159.29172,130.73415 158.061012,130.288554 L55.8415757,93.1944969 L279.179586,11.8202701 L197.800834,235.155566 Z M50.922283,127.084511 L1.29436458,176.715362 C-0.431454859,178.441161 -0.431454859,181.242047 1.29436458,182.967845 C2.1572743,183.830745 3.28542266,184.262194 4.42064405,184.262194 C5.55586544,184.262194 6.68401381,183.830745 7.54692353,182.967845 L57.1748419,133.336994 C58.9006613,131.611195 58.9006613,128.810309 57.1748419,127.084511 C55.445486,125.358712 52.6481024,125.358712 50.922283,127.084511 Z M157.657849,233.825853 L108.029931,283.453168 C106.304112,285.178967 106.304112,287.976316 108.029931,289.705651 C108.892841,290.56855 110.020989,291 111.156211,291 C112.291432,291 113.41958,290.56855 114.28249,289.705651 L163.910408,240.078336 C165.636228,238.352537 165.636228,235.555188 163.910408,233.825853 C162.184589,232.096518 159.387205,232.096518 157.657849,233.825853 Z M126.858338,164.139667 C125.132519,162.413869 122.335135,162.413869 120.605779,164.139667 L70.9813974,213.770519 C69.255578,215.496317 69.255578,218.297203 70.9813974,220.023002 C71.8443071,220.885901 72.9724555,221.317351 74.1076769,221.317351 C75.2428983,221.317351 76.3710466,220.885901 77.2339564,220.023002 L126.861875,170.39215 C128.587694,168.662815 128.587694,165.861929 126.858338,164.139667 Z" transform="translate(111 111)"/>
  </g>
</svg>
